<svg width="94" height="113" viewBox="0 0 94 113" fill="none" xmlns="http://www.w3.org/2000/svg">
<path d="M28.5574 90.5888C41.6053 100.55 56.6725 98.953 65 97.501C64.101 97.6303 63.2055 97.7152 62.3152 97.759C46.4748 98.5094 37.4564 85.0021 34.8457 78.0749C34.0138 74.9261 32.4877 66.922 33.0388 60.0956C33.5899 53.2693 30.3891 48.518 27.7099 47.1729C24.6627 45.3673 17.7164 44.8735 13.2085 49.8657C8.70053 54.8579 10.4981 64.3375 11.8755 67.9921C13.253 71.6468 16.0978 81.0765 28.5574 90.5888Z" fill="#8295F8"/>
<path d="M28.1611 47.2766C26.4373 46.2551 23.4734 45.4786 20.408 45.9005C27.4737 46.6236 27.7528 53.6764 27.2018 60.5028C26.6507 67.3291 26.2379 73.2206 29.0087 78.4821C31.62 85.4109 44.9987 98.5023 61.2998 97.7013C62.1785 97.6597 63.0822 97.5738 64.0115 97.4401C63.0996 97.5713 62.1953 97.6572 61.2998 97.7013C45.6204 98.4435 37.9055 85.1002 35.2969 78.1786C34.465 75.0298 32.6068 67.8388 33.1579 61.0124C33.7089 54.1861 31.209 49.0824 28.1611 47.2766Z" fill="#A3A6FA"/>
<path d="M13.6837 49.4227C18.1917 44.4305 25.114 45.471 28.1611 47.2766C31.209 49.0824 33.7089 54.1861 33.1579 61.0124C32.6068 67.8388 34.465 75.0298 35.2969 78.1786C38.0517 85.4881 46.5011 99.9593 64.0115 97.4401C46.5011 99.9593 31.7634 85.7916 29.0087 78.4821C26.2379 73.2206 26.6507 67.3291 27.2018 60.5028C27.7528 53.6764 27.4737 46.6236 20.408 45.9005" stroke="white" stroke-width="0.1"/>
<path d="M35.4838 13.6671C18.6232 20.8501 11.2941 37.6192 10.6347 45.6433C30.0196 31.201 43.4347 38.1453 48.1591 42.717C51.4322 45.8844 52.1788 48.2934 57.9206 50.9139C65.3679 54.3126 75.3967 51.556 79.5645 48.6681C80.2793 48.1728 87.1346 42.9257 87.353 34.0708C87.4226 32.3087 87.1841 30.3144 86.5069 28.0674C82.7511 15.6056 71.5676 11.9446 66.1283 10.5848C60.689 9.225 50.0388 7.46628 35.4838 13.6671Z" fill="url(#paint0_linear_2209_5642)"/>
<path d="M10.6347 45.6433C11.2941 37.6192 18.6232 20.8501 35.4838 13.6671C50.0388 7.46628 60.689 9.225 66.1283 10.5848C71.5676 11.9446 82.7511 15.6056 86.5069 28.0674M10.6347 45.6433C30.0196 31.201 43.4347 38.1453 48.1591 42.717C51.4322 45.8844 52.1788 48.2934 57.9206 50.9139C65.3679 54.3126 75.3967 51.556 79.5645 48.6681C80.4284 48.0694 90.2626 40.5293 86.5069 28.0674M10.6347 45.6433C30.0087 20.4794 46.5712 32.4444 51.2955 37.0161C54.5686 40.1835 65.8821 51.6913 79.5645 45.6433C80.5258 45.2183 90.2626 40.5293 86.5069 28.0674" stroke="white" stroke-width="0.1"/>
<path d="M86.3026 27.8478C87.1471 30.6499 87.3096 33.226 87.0443 35.5426C86.0591 42.1709 80.5831 44.7172 79.8551 45.039C66.1728 51.087 54.8592 39.5792 51.5861 36.4118C46.8618 31.8401 30.423 20.0497 11.0491 45.2135C30.434 30.7713 43.7256 38.5482 48.4499 43.1199C51.7231 46.2873 52.4697 48.6963 58.2115 51.3167C65.6588 54.7155 75.2935 51.7853 79.4613 48.8974C80.131 48.4334 86.1296 43.5288 87.0443 35.5426C87.3601 33.4176 87.2143 30.8731 86.3026 27.8478Z" fill="url(#paint1_linear_2209_5642)" stroke="white" stroke-width="0.1"/>
<path d="M92.9639 76.6745C80.0047 83.5429 67.5142 83.6762 54.5295 78.6266C46.4847 75.498 33.9983 64.1692 33.1562 61.0131C31.3048 69.8852 33.986 90.315 53.4485 97.0775C57.1066 98.3486 61.0755 98.4335 64.8366 97.5323C74.616 95.189 85.9086 89.2995 92.9639 76.6745Z" fill="url(#paint2_linear_2209_5642)"/>
<path d="M92.9639 76.6745C80.0047 83.5429 67.5142 83.6762 54.5295 78.6266C46.4847 75.498 33.9983 64.1692 33.1562 61.0131M92.9639 76.6745C85.9086 89.2995 74.616 95.189 64.8366 97.5323C61.0755 98.4335 57.1066 98.3486 53.4485 97.0775C33.986 90.315 31.3048 69.8852 33.1562 61.0131M92.9639 76.6745C80.0047 83.5429 71.0469 93.6382 52.1021 86.2708C44.0573 83.1423 33.9983 64.1692 33.1562 61.0131" stroke="white" stroke-width="0.1"/>
<path d="M54.1945 78.24C67.1792 83.2896 79.6696 83.6691 92.6289 76.8008C79.6696 83.6691 71.0436 94.1669 51.5726 86.2732C40.5214 81.793 33.9961 64.1695 33.154 61.0134C33.9961 64.1695 46.1497 75.1114 54.1945 78.24Z" fill="url(#paint3_linear_2209_5642)"/>
<path d="M43.7349 60.1618C43.896 59.7265 44.5117 59.7265 44.6728 60.1618L45.5454 62.52C45.596 62.6569 45.704 62.7648 45.8408 62.8154L48.199 63.6881C48.6344 63.8491 48.6344 64.4648 48.199 64.6259L45.8408 65.4985C45.704 65.5492 45.596 65.6571 45.5454 65.7939L44.6728 68.1522C44.5117 68.5875 43.896 68.5875 43.7349 68.1522L42.8623 65.7939C42.8117 65.6571 42.7038 65.5492 42.5669 65.4985L40.2087 64.6259C39.7734 64.4648 39.7733 63.8491 40.2087 63.6881L42.5669 62.8154C42.7038 62.7648 42.8117 62.6569 42.8623 62.52L43.7349 60.1618Z" fill="#D5D6EE"/>
<path d="M12.6312 23L13.3419 24.9206L15.2624 25.6312L13.3419 26.3419L12.6312 28.2624L11.9206 26.3419L10 25.6312L11.9206 24.9206L12.6312 23Z" fill="#CECFEE"/>
<path d="M84.4414 49.1314C84.5381 48.8703 84.9075 48.8703 85.0041 49.1314L85.6698 50.9305C85.7002 51.0126 85.765 51.0774 85.8471 51.1077L87.6461 51.7734C87.9073 51.8701 87.9073 52.2395 87.6461 52.3362L85.8471 53.0019C85.765 53.0323 85.7002 53.097 85.6698 53.1791L85.0041 54.9782C84.9075 55.2394 84.5381 55.2394 84.4414 54.9782L83.7757 53.1791C83.7453 53.097 83.6806 53.0323 83.5985 53.0019L81.7994 52.3362C81.5382 52.2395 81.5382 51.8701 81.7994 51.7734L83.5985 51.1077C83.6806 51.0774 83.7453 51.0126 83.7757 50.9305L84.4414 49.1314Z" fill="#765FF7"/>
<defs>
<linearGradient id="paint0_linear_2209_5642" x1="41.0454" y1="53.6328" x2="69.9889" y2="4.16585" gradientUnits="userSpaceOnUse">
<stop stop-color="#D5D6EE"/>
<stop offset="0.506587" stop-color="#8A89F1"/>
<stop offset="1" stop-color="#381BA8"/>
</linearGradient>
<linearGradient id="paint1_linear_2209_5642" x1="13.6802" y1="31.5312" x2="74.1983" y2="53.6335" gradientUnits="userSpaceOnUse">
<stop stop-color="#25247A"/>
<stop offset="1" stop-color="#A698FF"/>
</linearGradient>
<linearGradient id="paint2_linear_2209_5642" x1="42.1024" y1="91.5353" x2="78.7162" y2="68.3323" gradientUnits="userSpaceOnUse">
<stop stop-color="#3B30BF"/>
<stop offset="1" stop-color="#C4D7FD"/>
</linearGradient>
<linearGradient id="paint3_linear_2209_5642" x1="72.0961" y1="81.0107" x2="38.4634" y2="77.4142" gradientUnits="userSpaceOnUse">
<stop stop-color="#766BF8"/>
<stop offset="0.577623" stop-color="#7437F5"/>
<stop offset="1" stop-color="#3419A3"/>
</linearGradient>
</defs>
</svg>
