<svg width="145" height="142" viewBox="0 0 145 142" fill="none" xmlns="http://www.w3.org/2000/svg">
<g filter="url(#filter0_d_2209_5529)">
<path d="M74 43C89.4639 43 102 55.4088 102 70.7158C102 76.5481 100.178 81.9581 97.0693 86.4229L100.105 99.0039L88.8887 94.1904C84.5757 96.8764 79.4718 98.4326 74 98.4326C58.536 98.4326 46 86.023 46 70.7158C46.0001 55.4088 58.5361 43 74 43Z" fill="white"/>
<path d="M102 70.7158H102.5V70.7158L102 70.7158ZM97.0693 86.4229L96.659 86.1372L96.5306 86.3216L96.5833 86.5401L97.0693 86.4229ZM100.105 99.0039L99.9083 99.4634L100.826 99.8571L100.592 98.8866L100.105 99.0039ZM88.8887 94.1904L89.0858 93.7309L88.846 93.628L88.6244 93.766L88.8887 94.1904ZM46 70.7158L45.5 70.7158V70.7158H46ZM74 43V43.5C89.1926 43.5 101.5 55.6897 101.5 70.7158L102 70.7158L102.5 70.7158C102.5 55.1278 89.7352 42.5 74 42.5V43ZM102 70.7158H101.5C101.5 76.4422 99.7111 81.7532 96.659 86.1372L97.0693 86.4229L97.4797 86.7085C100.644 82.1631 102.5 76.654 102.5 70.7158H102ZM97.0693 86.4229L96.5833 86.5401L99.6194 99.1212L100.105 99.0039L100.592 98.8866L97.5554 86.3056L97.0693 86.4229ZM100.105 99.0039L100.303 98.5444L89.0858 93.7309L88.8887 94.1904L88.6915 94.6499L99.9083 99.4634L100.105 99.0039ZM88.8887 94.1904L88.6244 93.766C84.3885 96.404 79.3758 97.9326 74 97.9326V98.4326V98.9326C79.5679 98.9326 84.763 97.3488 89.153 94.6149L88.8887 94.1904ZM74 98.4326V97.9326C58.8074 97.9326 46.5 85.7421 46.5 70.7158H46H45.5C45.5 86.3039 58.2647 98.9326 74 98.9326V98.4326ZM46 70.7158L46.5 70.7158C46.5001 55.6897 58.8074 43.5 74 43.5V43V42.5C58.2648 42.5 45.5001 55.1278 45.5 70.7158L46 70.7158Z" fill="#F0EFFD"/>
</g>
<mask id="mask0_2209_5529" style="mask-type:luminance" maskUnits="userSpaceOnUse" x="62" y="59" width="24" height="24">
<rect x="62" y="59" width="24" height="24" fill="white"/>
</mask>
<g mask="url(#mask0_2209_5529)">
<path fill-rule="evenodd" clip-rule="evenodd" d="M68.96 73.6392V66.1992H64.4C63.08 66.1992 62 67.2792 62 68.5992V75.7992C62 77.1192 63.08 78.1992 64.4 78.1992H65.6V81.7992L69.2 78.1992H75.2C76.52 78.1992 77.6 77.1192 77.6 75.7992V73.6152C77.5232 73.632 77.4416 73.6404 77.36 73.6404H68.96V73.6392ZM83.5984 60.1992H72.7984C71.4784 60.1992 70.3984 61.2792 70.3984 62.5992V72.1992H78.7984L82.3984 75.7992V72.1992H83.5984C84.9184 72.1992 85.9984 71.1204 85.9984 69.7992V62.5992C85.9984 61.2792 84.9184 60.1992 83.5984 60.1992Z" fill="url(#paint0_linear_2209_5529)"/>
</g>
<defs>
<filter id="filter0_d_2209_5529" x="0.5" y="0.5" width="147" height="147.355" filterUnits="userSpaceOnUse" color-interpolation-filters="sRGB">
<feFlood flood-opacity="0" result="BackgroundImageFix"/>
<feColorMatrix in="SourceAlpha" type="matrix" values="0 0 0 0 0 0 0 0 0 0 0 0 0 0 0 0 0 0 127 0" result="hardAlpha"/>
<feOffset dy="3"/>
<feGaussianBlur stdDeviation="22.5"/>
<feColorMatrix type="matrix" values="0 0 0 0 0.0392157 0 0 0 0 0.027451 0 0 0 0 0.298039 0 0 0 0.0784314 0"/>
<feBlend mode="normal" in2="BackgroundImageFix" result="effect1_dropShadow_2209_5529"/>
<feBlend mode="normal" in="SourceGraphic" in2="effect1_dropShadow_2209_5529" result="shape"/>
</filter>
<linearGradient id="paint0_linear_2209_5529" x1="50.0008" y1="70.9992" x2="71.4816" y2="94.8652" gradientUnits="userSpaceOnUse">
<stop stop-color="#918EFA"/>
<stop offset="0.551645" stop-color="#625DEF"/>
<stop offset="1" stop-color="#4A44ED"/>
</linearGradient>
</defs>
</svg>
